G04*
G04 #@! TF.GenerationSoftware,Altium Limited,Altium Designer,20.2.3 (150)*
G04*
G04 Layer_Color=128*
%FSLAX24Y24*%
%MOIN*%
G70*
G04*
G04 #@! TF.SameCoordinates,C58E96D0-57B0-4EE0-BF03-278DEEB4FD21*
G04*
G04*
G04 #@! TF.FilePolarity,Positive*
G04*
G01*
G75*
%ADD23O,0.0236X0.0866*%
%ADD24R,0.0500X0.0600*%
%ADD25R,0.0354X0.0512*%
%ADD26R,0.0600X0.0500*%
%ADD27R,0.0433X0.0630*%
%ADD28R,0.0512X0.0354*%
%ADD29R,0.0315X0.0315*%
%ADD30R,0.1200X0.0760*%
%ADD31R,0.0787X0.1181*%
%ADD32R,0.1000X0.0900*%
%ADD33R,0.2300X0.2200*%
%ADD34R,0.0720X0.0560*%
D23*
X3600Y4005D02*
D03*
X3100D02*
D03*
X2600D02*
D03*
X2100D02*
D03*
X3600Y5895D02*
D03*
X3100D02*
D03*
X2600D02*
D03*
X2100D02*
D03*
D24*
X1336Y7650D02*
D03*
X496D02*
D03*
X4330D02*
D03*
X5170D02*
D03*
X4955Y2175D02*
D03*
X4115D02*
D03*
D25*
X3574Y6800D02*
D03*
X2826D02*
D03*
D26*
X4400Y6320D02*
D03*
Y5480D02*
D03*
X3100Y2180D02*
D03*
Y3020D02*
D03*
D27*
X3559Y7650D02*
D03*
X2241D02*
D03*
D28*
X4266Y3676D02*
D03*
Y4424D02*
D03*
X5000D02*
D03*
Y3676D02*
D03*
D29*
X1250Y3455D02*
D03*
Y4045D02*
D03*
D30*
X6250Y6180D02*
D03*
Y3820D02*
D03*
D31*
X9700Y4150D02*
D03*
X7750D02*
D03*
D32*
X4850Y950D02*
D03*
X3150D02*
D03*
D33*
X8980Y1750D02*
D03*
D34*
X6000Y2525D02*
D03*
Y775D02*
D03*
M02*
