G04*
G04 #@! TF.GenerationSoftware,Altium Limited,Altium Designer,20.2.3 (150)*
G04*
G04 Layer_Physical_Order=2*
G04 Layer_Color=16711680*
%FSLAX24Y24*%
%MOIN*%
G70*
G04*
G04 #@! TF.SameCoordinates,C58E96D0-57B0-4EE0-BF03-278DEEB4FD21*
G04*
G04*
G04 #@! TF.FilePolarity,Positive*
G04*
G01*
G75*
%ADD17C,0.0600*%
%ADD18R,0.0591X0.0591*%
%ADD19C,0.0591*%
%ADD20R,0.0886X0.0886*%
%ADD21C,0.0886*%
%ADD22C,0.0200*%
%ADD23O,0.0236X0.0866*%
%ADD24R,0.0500X0.0600*%
%ADD25R,0.0354X0.0512*%
%ADD26R,0.0600X0.0500*%
%ADD27R,0.0433X0.0630*%
%ADD28R,0.0512X0.0354*%
%ADD29R,0.0315X0.0315*%
%ADD30R,0.1200X0.0760*%
%ADD31R,0.0787X0.1181*%
%ADD32R,0.1000X0.0900*%
%ADD33R,0.2300X0.2200*%
%ADD34R,0.0720X0.0560*%
%ADD35C,0.0240*%
%ADD36C,0.0100*%
%ADD37C,0.0230*%
G36*
X6450Y7950D02*
Y6800D01*
X6500D01*
X6700Y6600D01*
X11450D01*
X11700Y6350D01*
Y5700D01*
X11450Y5450D01*
X5050D01*
X4950Y5550D01*
Y6040D01*
X4952Y6050D01*
Y7171D01*
X4950Y7181D01*
Y8000D01*
X5050Y8100D01*
X6300D01*
X6450Y7950D01*
D02*
G37*
G36*
X4682Y7989D02*
Y7339D01*
X4850Y7171D01*
Y6050D01*
X4750Y5950D01*
X3900D01*
X3800Y5850D01*
Y5500D01*
X3700Y5400D01*
X3500D01*
X3400Y5500D01*
Y7171D01*
X3232Y7339D01*
X3232Y7989D01*
X3332Y8089D01*
X4582D01*
X4682Y7989D01*
D02*
G37*
G36*
X3000Y8050D02*
X3100Y7950D01*
Y6600D01*
X2800Y6300D01*
Y5450D01*
X2750Y5400D01*
X2500D01*
X2400Y5500D01*
Y6550D01*
X2250Y6700D01*
X1200D01*
X1050Y6850D01*
Y7300D01*
X1050Y7950D01*
X1150Y8050D01*
X3000Y8050D01*
D02*
G37*
G36*
X3250Y6300D02*
Y5400D01*
X3350Y5300D01*
X3490D01*
X3500Y5298D01*
X3700D01*
X3710Y5300D01*
X3850D01*
X3950Y5400D01*
Y5700D01*
X4050Y5800D01*
X4700Y5800D01*
X4800Y5700D01*
Y5075D01*
X4625Y4900D01*
X3050D01*
X2900Y5050D01*
Y5440D01*
X2902Y5450D01*
Y6258D01*
X3044Y6400D01*
X3150D01*
X3250Y6300D01*
D02*
G37*
G36*
X900Y7950D02*
Y6700D01*
X1200Y6400D01*
Y4950D01*
X1050Y4800D01*
X150D01*
X50Y4900D01*
Y7950D01*
X150Y8050D01*
X800D01*
X900Y7950D01*
D02*
G37*
G36*
X1398Y4652D02*
Y4303D01*
X1406Y4265D01*
Y3906D01*
X1352Y3852D01*
X350D01*
X340Y3850D01*
X200D01*
X100Y3950D01*
Y4600D01*
X198Y4698D01*
X1050D01*
X1060Y4700D01*
X1350D01*
X1398Y4652D01*
D02*
G37*
G36*
X2298Y6352D02*
Y5500D01*
X2298Y5498D01*
X2250Y5450D01*
X1900D01*
X1850Y5400D01*
X1850Y3150D01*
X1600Y2900D01*
X350D01*
X250Y3000D01*
Y3650D01*
X350Y3750D01*
X1450Y3750D01*
X1488Y3788D01*
X1507D01*
Y3807D01*
X1550Y3850D01*
Y6300D01*
X1650Y6400D01*
X2250D01*
X2298Y6352D01*
D02*
G37*
G36*
X11700Y5150D02*
Y3650D01*
X11550Y3500D01*
X10750D01*
X10550Y3700D01*
Y4900D01*
X10400Y5050D01*
X8350D01*
X8250Y4950D01*
Y3600D01*
X8150Y3500D01*
X7400D01*
X7350Y3550D01*
Y4400D01*
X7100Y4650D01*
X5650D01*
X5070Y4070D01*
X5050D01*
X3870Y4070D01*
X3750Y3950D01*
Y3650D01*
X3650Y3550D01*
X3500D01*
X3400Y3650D01*
Y4690D01*
X3508Y4798D01*
X4625D01*
X4664Y4806D01*
X4685Y4820D01*
X4850D01*
X5350Y5300D01*
X11550D01*
X11700Y5150D01*
D02*
G37*
G36*
X5348Y3802D02*
Y3148D01*
X5250Y3050D01*
X4000D01*
X3900Y3150D01*
Y3800D01*
X4000Y3900D01*
X5250D01*
X5348Y3802D01*
D02*
G37*
G36*
X7100Y4100D02*
Y3350D01*
X7300Y3150D01*
Y2200D01*
X7200Y2100D01*
X5550D01*
X5450Y2200D01*
Y4150D01*
X5600Y4300D01*
X6900D01*
X7100Y4100D01*
D02*
G37*
G36*
X3600Y3275D02*
Y2900D01*
X3700Y2800D01*
X4150D01*
X4400Y2550D01*
Y1900D01*
X4350Y1850D01*
X3850D01*
X3800Y1900D01*
Y2250D01*
X3500Y2550D01*
X2850Y2550D01*
X2750Y2650D01*
X2750Y3256D01*
X2772Y3278D01*
X2780Y3290D01*
X2792Y3298D01*
X2872Y3378D01*
X2887Y3400D01*
X3475D01*
X3600Y3275D01*
D02*
G37*
G36*
X10300Y4750D02*
Y3350D01*
X9800Y2850D01*
X11050D01*
X11700Y2850D01*
X11800Y2750D01*
Y600D01*
X11550Y350D01*
X7700D01*
X7450Y600D01*
Y2700D01*
X7700Y2950D01*
X8500D01*
X8850Y3300D01*
Y4550D01*
X9150Y4850D01*
X10200D01*
X10300Y4750D01*
D02*
G37*
G36*
X2800Y4450D02*
X2800Y3454D01*
X2793Y3443D01*
X2727Y3377D01*
X2723Y3375D01*
X2719Y3370D01*
X2700D01*
Y3351D01*
X2695Y3347D01*
X2695Y3347D01*
X2693Y3343D01*
X2600Y3250D01*
X2600Y1600D01*
X2450Y1450D01*
Y400D01*
X4050D01*
X4200Y550D01*
X4200Y1450D01*
X4650Y1900D01*
Y2500D01*
X4700Y2550D01*
X5200D01*
X5300Y2450D01*
X5300Y1650D01*
X5300Y1625D01*
X5275Y1600D01*
X5340Y1600D01*
X6350Y1600D01*
X6450Y1500D01*
Y250D01*
X6350Y150D01*
X4200Y150D01*
X1700Y150D01*
X1450Y400D01*
Y2200D01*
X2400Y3150D01*
Y4450D01*
X2500Y4550D01*
X2700D01*
X2800Y4450D01*
D02*
G37*
D17*
X3100Y1000D02*
X3150Y950D01*
X3100Y1000D02*
Y1900D01*
X6250Y6180D02*
X6270Y6200D01*
X10716D02*
X10843Y6073D01*
X6270Y6200D02*
X10716D01*
X11045Y6073D02*
X11100Y6018D01*
X10843Y6073D02*
X11045D01*
D18*
X600Y5300D02*
D03*
D19*
Y4300D02*
D03*
Y3300D02*
D03*
Y2300D02*
D03*
D20*
X11100Y2081D02*
D03*
D21*
Y4050D02*
D03*
Y6018D02*
D03*
D22*
X2100Y3250D02*
D03*
X5250D02*
D03*
X4400Y6950D02*
D03*
X1244Y4585D02*
D03*
X7050Y2300D02*
D03*
X5150Y6050D02*
D03*
D23*
X3600Y4005D02*
D03*
X3100D02*
D03*
X2600D02*
D03*
X2100D02*
D03*
X3600Y5895D02*
D03*
X3100D02*
D03*
X2600D02*
D03*
X2100D02*
D03*
D24*
X1336Y7650D02*
D03*
X496D02*
D03*
X4330D02*
D03*
X5170D02*
D03*
X4955Y2175D02*
D03*
X4115D02*
D03*
D25*
X3574Y6800D02*
D03*
X2826D02*
D03*
D26*
X4400Y6320D02*
D03*
Y5480D02*
D03*
X3100Y2180D02*
D03*
Y3020D02*
D03*
D27*
X3559Y7650D02*
D03*
X2241D02*
D03*
D28*
X4266Y3676D02*
D03*
Y4424D02*
D03*
X5000D02*
D03*
Y3676D02*
D03*
D29*
X1250Y3455D02*
D03*
Y4045D02*
D03*
D30*
X6250Y6180D02*
D03*
Y3820D02*
D03*
D31*
X9700Y4150D02*
D03*
X7750D02*
D03*
D32*
X4850Y950D02*
D03*
X3150D02*
D03*
D33*
X8980Y1750D02*
D03*
D34*
X6000Y2525D02*
D03*
Y775D02*
D03*
D35*
X2100Y3250D02*
Y4005D01*
D36*
X4266Y3676D02*
X5000D01*
X3600Y5895D02*
Y6057D01*
X5023Y3676D02*
X5250Y3449D01*
Y3250D02*
Y3449D01*
X3100Y3020D02*
X3211Y2909D01*
X3491D01*
X3915Y2485D01*
Y2375D02*
Y2485D01*
Y2375D02*
X4115Y2175D01*
X5000Y3676D02*
X5023D01*
X1250Y3455D02*
X1750Y3955D01*
X1809Y5900D02*
X2095D01*
X1750Y5841D02*
X1809Y5900D01*
X1750Y3955D02*
Y5841D01*
X2250Y259D02*
Y1900D01*
X2550Y2200D02*
Y3563D01*
X2250Y1900D02*
X2550Y2200D01*
X2250Y259D02*
X2309Y200D01*
X4691D01*
X2574Y3587D02*
Y3627D01*
X2600Y3653D01*
X2550Y3563D02*
X2574Y3587D01*
X2600Y3653D02*
Y4005D01*
X4750Y259D02*
Y550D01*
X4691Y200D02*
X4750Y259D01*
X4975Y775D02*
X5025D01*
X4750Y550D02*
X4975Y775D01*
X6120Y6050D02*
X6250Y6180D01*
X5150Y6050D02*
X6120D01*
X4400Y6320D02*
Y6950D01*
X1244Y4152D02*
Y4585D01*
Y4152D02*
X1300Y4095D01*
X1250Y4045D02*
X1300Y4095D01*
X892Y4045D02*
X1250D01*
X637Y4300D02*
X892Y4045D01*
X600Y4300D02*
X637D01*
X6020Y2525D02*
X6825D01*
X6000D02*
X6020D01*
X6825D02*
X7050Y2300D01*
X6250Y6180D02*
X6411Y6018D01*
X6169Y6261D02*
Y7031D01*
X5370Y7400D02*
X5800D01*
X6169Y7031D01*
Y6261D02*
X6250Y6180D01*
X5170Y7600D02*
X5370Y7400D01*
X5170Y7600D02*
Y7650D01*
X2600Y5895D02*
Y6495D01*
X2826Y6721D01*
Y6800D01*
X3100Y5109D02*
Y5895D01*
Y5109D02*
X3159Y5050D01*
X4350Y5480D02*
X4400D01*
X3920Y5050D02*
X4350Y5480D01*
X3159Y5050D02*
X3920D01*
X7750Y4347D02*
Y5041D01*
X5300Y4724D02*
Y4941D01*
X7750Y4300D02*
Y4347D01*
X7406Y4690D02*
X7750Y4347D01*
X7359Y4690D02*
X7406D01*
X7050Y5000D02*
X7359Y4690D01*
X5359Y5000D02*
X7050D01*
X5300Y4941D02*
X5359Y5000D01*
X5000Y4424D02*
X5079D01*
X5206Y4551D01*
Y4630D01*
X5300Y4724D01*
X4114Y4270D02*
X4267Y4424D01*
X3600Y4005D02*
Y4207D01*
X3663Y4270D01*
X4114D01*
X4267Y4424D02*
X5000D01*
X4850Y950D02*
Y2070D01*
X4955Y2175D01*
X5025Y775D02*
X6000D01*
X4850Y950D02*
X5025Y775D01*
X6250Y2755D02*
Y3820D01*
X6020Y2525D02*
X6250Y2755D01*
X7809Y5100D02*
X11041D01*
X7750Y5041D02*
X7809Y5100D01*
X11100Y4050D02*
Y5041D01*
X11041Y5100D02*
X11100Y5041D01*
X8980Y1750D02*
Y3233D01*
X9700Y3953D01*
Y4150D01*
X9312Y2081D02*
X11100D01*
X8980Y1750D02*
X9312Y2081D01*
X2095Y5900D02*
X2100Y5895D01*
X600Y3300D02*
X647Y3347D01*
X1143D01*
X1250Y3455D01*
X3600Y6057D02*
Y6774D01*
X4200Y6120D02*
X4400Y6320D01*
X3663Y6120D02*
X4200D01*
X3600Y6057D02*
X3663Y6120D01*
X3574Y6800D02*
X3600Y6774D01*
X3574Y6800D02*
Y7635D01*
X3559Y7650D02*
X3574Y7635D01*
X3559Y7650D02*
X4330D01*
X2241Y7552D02*
Y7650D01*
Y7552D02*
X2699Y7093D01*
Y6927D02*
Y7093D01*
Y6927D02*
X2826Y6800D01*
X1336Y7650D02*
X2241D01*
X600Y5300D02*
Y7546D01*
X496Y7650D02*
X600Y7546D01*
D37*
X3100Y3020D02*
Y4005D01*
M02*
