G04*
G04 #@! TF.GenerationSoftware,Altium Limited,Altium Designer,20.2.3 (150)*
G04*
G04 Layer_Color=32768*
%FSLAX24Y24*%
%MOIN*%
G70*
G04*
G04 #@! TF.SameCoordinates,C58E96D0-57B0-4EE0-BF03-278DEEB4FD21*
G04*
G04*
G04 #@! TF.FilePolarity,Positive*
G04*
G01*
G75*
%ADD57C,0.0039*%
%ADD58C,0.0020*%
D57*
X2653Y4950D02*
X3047D01*
X2850Y4753D02*
Y5147D01*
X3933Y3474D02*
Y6426D01*
X1767Y3474D02*
Y6426D01*
Y3474D02*
X3933D01*
X1767Y6426D02*
X3933D01*
D58*
X2570Y7144D02*
X3830D01*
X2570Y6456D02*
Y7144D01*
Y6456D02*
X3830D01*
Y7144D01*
X3003Y6800D02*
X3397D01*
X3200Y6603D02*
Y6997D01*
X4610Y3420D02*
Y4680D01*
X3921D02*
X4610D01*
X3921Y3420D02*
Y4680D01*
Y3420D02*
X4610D01*
X4266Y3853D02*
Y4247D01*
X4069Y4050D02*
X4463D01*
X4803D02*
X5197D01*
X5000Y3853D02*
Y4247D01*
X4656Y3420D02*
X5344D01*
X4656D02*
Y4680D01*
X5344D01*
Y3420D02*
Y4680D01*
X1250Y3553D02*
Y3947D01*
X1053Y3750D02*
X1447D01*
X994Y3219D02*
Y4281D01*
Y3219D02*
X1506D01*
Y4281D01*
X994D02*
X1506D01*
X10785Y4050D02*
X11179D01*
X10982Y3853D02*
Y4247D01*
X8974Y1019D02*
X12990D01*
Y7318D01*
X8974D02*
X12990D01*
X8974Y1019D02*
Y7318D01*
M02*
