G04*
G04 #@! TF.GenerationSoftware,Altium Limited,Altium Designer,20.2.3 (150)*
G04*
G04 Layer_Color=16711935*
%FSLAX24Y24*%
%MOIN*%
G70*
G04*
G04 #@! TF.SameCoordinates,C58E96D0-57B0-4EE0-BF03-278DEEB4FD21*
G04*
G04*
G04 #@! TF.FilePolarity,Positive*
G04*
G01*
G75*
%ADD57C,0.0039*%
D57*
X2417Y5383D02*
G03*
X2417Y5383I-197J0D01*
G01*
X3834Y4163D02*
Y5737D01*
X1866Y4163D02*
Y5737D01*
Y4163D02*
X3834D01*
X1866Y5737D02*
X3834D01*
X2806Y6554D02*
X3594D01*
X2806Y7046D02*
X3594D01*
X2806Y6554D02*
Y7046D01*
X3594Y6554D02*
Y7046D01*
X4020Y3656D02*
Y4444D01*
X4512Y3656D02*
Y4444D01*
X4020D02*
X4512D01*
X4020Y3656D02*
X4512D01*
X4754D02*
X5246D01*
X4754Y4444D02*
X5246D01*
Y3656D02*
Y4444D01*
X4754Y3656D02*
Y4444D01*
X1093Y4065D02*
X1407D01*
X1093Y3435D02*
X1407D01*
X1093D02*
Y4065D01*
X1407Y3435D02*
Y4065D01*
X9250Y1097D02*
X9332Y1333D01*
X9053D02*
X9332D01*
X12911Y1097D02*
Y7003D01*
X9053Y1333D02*
Y7239D01*
X9250Y1097D02*
X12911D01*
X9230Y7003D02*
X12435D01*
X12635D02*
X12911D01*
X12332Y7239D02*
X12435Y7003D01*
X12635D02*
X12738Y7239D01*
X12332D02*
X12738D01*
X9230Y7003D02*
X9332Y7239D01*
X9053D02*
X9332D01*
M02*
