G04*
G04 #@! TF.GenerationSoftware,Altium Limited,Altium Designer,20.2.3 (150)*
G04*
G04 Layer_Color=65535*
%FSLAX24Y24*%
%MOIN*%
G70*
G04*
G04 #@! TF.SameCoordinates,C58E96D0-57B0-4EE0-BF03-278DEEB4FD21*
G04*
G04*
G04 #@! TF.FilePolarity,Positive*
G04*
G01*
G75*
%ADD10C,0.0079*%
%ADD11C,0.0063*%
D10*
X100Y1800D02*
X1100D01*
X100D02*
Y5800D01*
X1100Y1800D02*
Y5800D01*
X100D02*
X1100D01*
X9250Y1097D02*
X12911D01*
X9053Y1333D02*
Y7239D01*
X12911Y1097D02*
Y7003D01*
X9053Y1333D02*
X9332D01*
X9250Y1097D02*
X9332Y1333D01*
X9053Y7239D02*
X9332D01*
X9230Y7003D02*
X9332Y7239D01*
X12332D02*
X12738D01*
X12635Y7003D02*
X12738Y7239D01*
X12332D02*
X12435Y7003D01*
X12635D02*
X12911D01*
X9230D02*
X12435D01*
D11*
X9240Y7852D02*
X9187Y7905D01*
X9082D01*
X9030Y7852D01*
Y7642D01*
X9082Y7590D01*
X9187D01*
X9240Y7642D01*
X9345Y7590D02*
Y7905D01*
X9555Y7590D01*
Y7905D01*
X9660Y7590D02*
X9765D01*
X9712D01*
Y7905D01*
X9660Y7852D01*
X190Y6093D02*
Y6407D01*
X348D01*
X400Y6355D01*
Y6250D01*
X348Y6198D01*
X190D01*
X505Y6093D02*
X610D01*
X557D01*
Y6407D01*
X505Y6355D01*
M02*
