G04*
G04 #@! TF.GenerationSoftware,Altium Limited,Altium Designer,20.2.3 (150)*
G04*
G04 Layer_Color=16711935*
%FSLAX24Y24*%
%MOIN*%
G70*
G04*
G04 #@! TF.SameCoordinates,C58E96D0-57B0-4EE0-BF03-278DEEB4FD21*
G04*
G04*
G04 #@! TF.FilePolarity,Negative*
G04*
G01*
G75*
%ADD12R,0.0671X0.0671*%
%ADD13C,0.0671*%
%ADD14R,0.0966X0.0966*%
%ADD15C,0.0966*%
%ADD16C,0.0280*%
%ADD38O,0.0316X0.0946*%
%ADD39R,0.0580X0.0680*%
%ADD40R,0.0434X0.0592*%
%ADD41R,0.0680X0.0580*%
%ADD42R,0.0513X0.0710*%
%ADD43R,0.0592X0.0434*%
%ADD44R,0.0395X0.0395*%
%ADD45R,0.1280X0.0840*%
%ADD46R,0.0867X0.1261*%
%ADD47R,0.1080X0.0980*%
%ADD48R,0.2380X0.2280*%
%ADD49R,0.0800X0.0640*%
D12*
X600Y5300D02*
D03*
D13*
Y4300D02*
D03*
Y3300D02*
D03*
Y2300D02*
D03*
D14*
X11100Y2081D02*
D03*
D15*
Y4050D02*
D03*
Y6018D02*
D03*
D16*
X2100Y3250D02*
D03*
X5250D02*
D03*
X4400Y6950D02*
D03*
X1244Y4585D02*
D03*
X7050Y2300D02*
D03*
X5150Y6050D02*
D03*
D38*
X3600Y4005D02*
D03*
X3100D02*
D03*
X2600D02*
D03*
X2100D02*
D03*
X3600Y5895D02*
D03*
X3100D02*
D03*
X2600D02*
D03*
X2100D02*
D03*
D39*
X1336Y7650D02*
D03*
X496D02*
D03*
X4330D02*
D03*
X5170D02*
D03*
X4955Y2175D02*
D03*
X4115D02*
D03*
D40*
X3574Y6800D02*
D03*
X2826D02*
D03*
D41*
X4400Y6320D02*
D03*
Y5480D02*
D03*
X3100Y2180D02*
D03*
Y3020D02*
D03*
D42*
X3559Y7650D02*
D03*
X2241D02*
D03*
D43*
X4266Y3676D02*
D03*
Y4424D02*
D03*
X5000D02*
D03*
Y3676D02*
D03*
D44*
X1250Y3455D02*
D03*
Y4045D02*
D03*
D45*
X6250Y6180D02*
D03*
Y3820D02*
D03*
D46*
X9700Y4150D02*
D03*
X7750D02*
D03*
D47*
X4850Y950D02*
D03*
X3150D02*
D03*
D48*
X8980Y1750D02*
D03*
D49*
X6000Y2525D02*
D03*
Y775D02*
D03*
M02*
