G04*
G04 #@! TF.GenerationSoftware,Altium Limited,Altium Designer,20.2.3 (150)*
G04*
G04 Layer_Color=32896*
%FSLAX24Y24*%
%MOIN*%
G70*
G04*
G04 #@! TF.SameCoordinates,43E71072-F5BC-4878-B807-13FB7BF1F8C8*
G04*
G04*
G04 #@! TF.FilePolarity,Positive*
G04*
G01*
G75*
%ADD10C,0.0079*%
%ADD27C,0.0098*%
%ADD28C,0.0050*%
D10*
X5846Y2566D02*
X6554D01*
X5846Y4534D02*
X6554D01*
X5846Y2566D02*
Y4534D01*
X6554Y2566D02*
Y4534D01*
X4112Y5043D02*
Y5357D01*
X3955D01*
X3902Y5305D01*
Y5200D01*
X3955Y5148D01*
X4112D01*
X4007D02*
X3902Y5043D01*
X3588D02*
X3798D01*
X3588Y5252D01*
Y5305D01*
X3640Y5357D01*
X3745D01*
X3798Y5305D01*
X2912Y5043D02*
Y5357D01*
X2755D01*
X2702Y5305D01*
Y5200D01*
X2755Y5148D01*
X2912D01*
X2807D02*
X2702Y5043D01*
X2440D02*
Y5357D01*
X2598Y5200D01*
X2388D01*
X9293Y3440D02*
X9607D01*
Y3598D01*
X9555Y3650D01*
X9450D01*
X9398Y3598D01*
Y3440D01*
Y3545D02*
X9293Y3650D01*
Y3755D02*
Y3860D01*
Y3807D01*
X9607D01*
X9555Y3755D01*
X9243Y988D02*
X9557D01*
Y1145D01*
X9505Y1198D01*
X9400D01*
X9348Y1145D01*
Y988D01*
Y1093D02*
X9243Y1198D01*
X9557Y1512D02*
X9505Y1407D01*
X9400Y1302D01*
X9295D01*
X9243Y1355D01*
Y1460D01*
X9295Y1512D01*
X9348D01*
X9400Y1460D01*
Y1302D01*
X7093Y1588D02*
X7407D01*
Y1745D01*
X7355Y1798D01*
X7250D01*
X7198Y1745D01*
Y1588D01*
Y1693D02*
X7093Y1798D01*
X7355Y1902D02*
X7407Y1955D01*
Y2060D01*
X7355Y2112D01*
X7302D01*
X7250Y2060D01*
Y2007D01*
Y2060D01*
X7198Y2112D01*
X7145D01*
X7093Y2060D01*
Y1955D01*
X7145Y1902D01*
X2750Y2305D02*
X2802Y2357D01*
X2907D01*
X2960Y2305D01*
Y2095D01*
X2907Y2043D01*
X2802D01*
X2750Y2095D01*
X2645Y2043D02*
X2540D01*
X2593D01*
Y2357D01*
X2645Y2305D01*
X4543Y338D02*
X4857D01*
Y495D01*
X4805Y548D01*
X4700D01*
X4648Y495D01*
Y338D01*
Y443D02*
X4543Y548D01*
X4857Y862D02*
Y652D01*
X4700D01*
X4752Y757D01*
Y810D01*
X4700Y862D01*
X4595D01*
X4543Y810D01*
Y705D01*
X4595Y652D01*
X6410Y5107D02*
Y4845D01*
X6357Y4793D01*
X6252D01*
X6200Y4845D01*
Y5107D01*
X6095Y4793D02*
X5990D01*
X6043D01*
Y5107D01*
X6095Y5055D01*
X6255Y648D02*
X6307Y595D01*
Y490D01*
X6255Y438D01*
X6045D01*
X5993Y490D01*
Y595D01*
X6045Y648D01*
X5993Y962D02*
Y752D01*
X6202Y962D01*
X6255D01*
X6307Y910D01*
Y805D01*
X6255Y752D01*
D27*
X7194Y4635D02*
G03*
X7194Y4635I-49J0D01*
G01*
D28*
X4330Y2570D02*
Y4830D01*
X3370Y2570D02*
X4330D01*
X3370Y4830D02*
X4330D01*
X3370Y2570D02*
Y4830D01*
X2220Y2570D02*
Y4830D01*
X3180D01*
X2220Y2570D02*
X3180D01*
Y4830D01*
X9080Y2570D02*
Y4830D01*
X8120Y2570D02*
X9080D01*
X8120Y4830D02*
X9080D01*
X8120Y2570D02*
Y4830D01*
Y120D02*
Y2380D01*
X9080D01*
X8120Y120D02*
X9080D01*
Y2380D01*
X4670D02*
X6930D01*
Y1420D02*
Y2380D01*
X4670Y1420D02*
Y2380D01*
Y1420D02*
X6930D01*
X4330Y120D02*
Y2380D01*
X3370Y120D02*
X4330D01*
X3370Y2380D02*
X4330D01*
X3370Y120D02*
Y2380D01*
M02*
