G04*
G04 #@! TF.GenerationSoftware,Altium Limited,Altium Designer,20.2.3 (150)*
G04*
G04 Layer_Physical_Order=2*
G04 Layer_Color=16711680*
%FSLAX24Y24*%
%MOIN*%
G70*
G04*
G04 #@! TF.SameCoordinates,43E71072-F5BC-4878-B807-13FB7BF1F8C8*
G04*
G04*
G04 #@! TF.FilePolarity,Positive*
G04*
G01*
G75*
%ADD13C,0.0630*%
G04:AMPARAMS|DCode=14|XSize=63mil|YSize=63mil|CornerRadius=15.7mil|HoleSize=0mil|Usage=FLASHONLY|Rotation=270.000|XOffset=0mil|YOffset=0mil|HoleType=Round|Shape=RoundedRectangle|*
%AMROUNDEDRECTD14*
21,1,0.0630,0.0315,0,0,270.0*
21,1,0.0315,0.0630,0,0,270.0*
1,1,0.0315,-0.0157,-0.0157*
1,1,0.0315,-0.0157,0.0157*
1,1,0.0315,0.0157,0.0157*
1,1,0.0315,0.0157,-0.0157*
%
%ADD14ROUNDEDRECTD14*%
%ADD15C,0.0197*%
%ADD16R,0.0800X0.0600*%
%ADD17R,0.0600X0.0800*%
%ADD18R,0.0512X0.0354*%
%ADD19O,0.0866X0.0236*%
%ADD20C,0.0100*%
%ADD21C,0.0315*%
%ADD22C,0.0394*%
G36*
X5650Y6500D02*
X5750D01*
X5750Y6500D01*
X5950Y6300D01*
Y4350D01*
X5700Y4100D01*
X4850D01*
X4700Y4250D01*
Y4950D01*
X4400Y5250D01*
X4400D01*
X1219Y5250D01*
X1208Y5254D01*
X1100Y5269D01*
X992Y5254D01*
X981Y5250D01*
X700D01*
X550Y5400D01*
Y6350D01*
X700Y6500D01*
X5650Y6500D01*
D02*
G37*
G36*
X9650Y5550D02*
Y4300D01*
X9400Y4050D01*
X6450Y4050D01*
Y3950D01*
X6100D01*
Y5900D01*
X6350Y6150D01*
X6450D01*
X9050Y6150D01*
X9650Y5550D01*
D02*
G37*
G36*
X4350Y5050D02*
X4450Y4950D01*
X4450Y3900D01*
X4350Y3800D01*
X1950Y3800D01*
X1800Y3950D01*
Y4900D01*
X1950Y5050D01*
X4350Y5050D01*
D02*
G37*
G36*
X3150Y3450D02*
Y3410D01*
X3148Y3400D01*
Y1700D01*
X3150Y1690D01*
Y1600D01*
X3050Y1500D01*
X1700Y1500D01*
X800D01*
X600Y1700D01*
Y2050D01*
X800Y2250D01*
X1400D01*
Y2250D01*
X1550Y2400D01*
X1550Y3400D01*
X1750Y3600D01*
X3000Y3600D01*
X3150Y3450D01*
D02*
G37*
G36*
X9500Y3550D02*
X9700Y3350D01*
X9700Y1600D01*
X9550Y1450D01*
X8250D01*
X8150Y1550D01*
X8150Y3450D01*
X8250Y3550D01*
X9500Y3550D01*
D02*
G37*
G36*
X4500Y3350D02*
X4500Y1650D01*
X4300Y1450D01*
X3500Y1450D01*
X3250Y1700D01*
Y3400D01*
X3400Y3550D01*
X4300D01*
X4500Y3350D01*
D02*
G37*
G36*
X5950Y2750D02*
Y950D01*
X5850Y850D01*
X4950D01*
X4700Y1100D01*
X4700Y2850D01*
X4800Y2950D01*
X5750D01*
X5950Y2750D01*
D02*
G37*
G36*
X7650Y2950D02*
Y1200D01*
X7950Y900D01*
X9100D01*
X9350Y650D01*
Y250D01*
X9200Y100D01*
X250D01*
X50Y300D01*
X50Y1000D01*
X200Y1150D01*
X3300Y1150D01*
X3550Y900D01*
X4750D01*
X4950Y700D01*
X6350Y700D01*
X6900Y1250D01*
X6900Y2600D01*
X6850Y2650D01*
X6750D01*
X6650Y2750D01*
Y2950D01*
X6700Y3000D01*
X7600D01*
X7650Y2950D01*
D02*
G37*
D13*
X1100Y850D02*
D03*
Y1850D02*
D03*
Y3850D02*
D03*
Y4850D02*
D03*
Y2850D02*
D03*
D14*
Y5850D02*
D03*
D15*
X1143Y1322D02*
G03*
X1057Y1322I-43J-472D01*
G01*
X3595Y1105D02*
X5471D01*
X1143Y1322D02*
X3378D01*
X3595Y1105D01*
X256Y1391D02*
Y2707D01*
X5150Y1900D02*
X5261Y2011D01*
X5350Y1232D02*
X5477Y1105D01*
X325Y1322D02*
X1057D01*
X406Y2857D02*
X1093D01*
X5261Y2011D02*
Y2794D01*
X5350Y1232D02*
Y1311D01*
X5261Y1400D02*
Y1789D01*
X256Y2707D02*
X406Y2857D01*
X5261Y1400D02*
X5350Y1311D01*
X5150Y1900D02*
X5261Y1789D01*
X5255Y2800D02*
X5261Y2794D01*
X5471Y1098D02*
X5550D01*
X256Y1391D02*
X325Y1322D01*
X1093Y2857D02*
X1100Y2850D01*
D16*
X3850Y3050D02*
D03*
Y4350D02*
D03*
X2700D02*
D03*
Y3050D02*
D03*
X8600D02*
D03*
Y4350D02*
D03*
Y1900D02*
D03*
Y600D02*
D03*
X3850D02*
D03*
Y1900D02*
D03*
D17*
X6450D02*
D03*
X5150D02*
D03*
D18*
X2700Y1674D02*
D03*
Y926D02*
D03*
X5550Y1098D02*
D03*
Y350D02*
D03*
D19*
X5255Y2800D02*
D03*
Y3300D02*
D03*
Y3800D02*
D03*
Y4300D02*
D03*
X7145Y2800D02*
D03*
Y3300D02*
D03*
Y3800D02*
D03*
Y4300D02*
D03*
D20*
X1100Y5850D02*
X1108Y5858D01*
X5255Y4300D02*
X5263D01*
X1108Y5858D02*
X4926D01*
X5326Y4363D02*
Y5458D01*
X4926Y5858D02*
X5326Y5458D01*
X5263Y4300D02*
X5326Y4363D01*
X3424Y926D02*
X3750Y600D01*
X2700Y926D02*
X3424D01*
X3750Y600D02*
X3850D01*
X4100Y350D01*
X1419Y1674D02*
X2700D01*
X1243Y1850D02*
X1419Y1674D01*
X1100Y1850D02*
X1243D01*
X2700Y1674D02*
Y3050D01*
X3850Y1900D02*
Y3050D01*
X4100Y3300D01*
X7300Y350D02*
X8350D01*
X5550D02*
X7300D01*
X7145Y2517D02*
Y2800D01*
Y2517D02*
X7300Y2362D01*
Y350D02*
Y2362D01*
X8350Y350D02*
X8600Y600D01*
X4100Y350D02*
X5550D01*
X1100Y850D02*
X2624D01*
X2700Y926D01*
D21*
X5255Y3800D02*
X5700D01*
X4400D02*
X5255D01*
X3850Y4350D02*
X3950D01*
X4200Y4100D01*
Y4000D02*
Y4100D01*
Y4000D02*
X4400Y3800D01*
X2700Y4350D02*
X3850D01*
X7145Y3800D02*
X7820D01*
X6750D02*
X7145D01*
X7820D02*
X8570Y3050D01*
X8600D01*
X200Y4035D02*
Y6550D01*
X700Y7050D02*
X9150D01*
X200Y6550D02*
X700Y7050D01*
X9150D02*
X10250Y5950D01*
X200Y4035D02*
X384Y3850D01*
X1100D01*
X10250Y1384D02*
Y5950D01*
X8084Y1200D02*
X10065D01*
X10250Y1384D01*
X7145Y3300D02*
X7715D01*
X6750D02*
X7145D01*
X5255D02*
X5700D01*
X4100D02*
X5255D01*
X7715D02*
X7900Y3115D01*
Y1384D02*
X8084Y1200D01*
X7900Y1384D02*
Y3115D01*
X8600Y1900D02*
Y3050D01*
D22*
X6347Y2003D02*
X6450Y1900D01*
X6347Y2003D02*
Y2287D01*
X6300Y2334D02*
X6347Y2287D01*
X6531Y4300D02*
X8550D01*
X6300Y4069D02*
X6531Y4300D01*
X6300Y2334D02*
Y4069D01*
X8550Y4300D02*
X8600Y4350D01*
M02*
