G04*
G04 #@! TF.GenerationSoftware,Altium Limited,Altium Designer,20.2.3 (150)*
G04*
G04 Layer_Color=16711935*
%FSLAX24Y24*%
%MOIN*%
G70*
G04*
G04 #@! TF.SameCoordinates,43E71072-F5BC-4878-B807-13FB7BF1F8C8*
G04*
G04*
G04 #@! TF.FilePolarity,Negative*
G04*
G01*
G75*
%ADD11C,0.0710*%
G04:AMPARAMS|DCode=12|XSize=71mil|YSize=71mil|CornerRadius=19.7mil|HoleSize=0mil|Usage=FLASHONLY|Rotation=270.000|XOffset=0mil|YOffset=0mil|HoleType=Round|Shape=RoundedRectangle|*
%AMROUNDEDRECTD12*
21,1,0.0710,0.0315,0,0,270.0*
21,1,0.0315,0.0710,0,0,270.0*
1,1,0.0395,-0.0157,-0.0157*
1,1,0.0395,-0.0157,0.0157*
1,1,0.0395,0.0157,0.0157*
1,1,0.0395,0.0157,-0.0157*
%
%ADD12ROUNDEDRECTD12*%
%ADD23R,0.0880X0.0680*%
%ADD24R,0.0680X0.0880*%
%ADD25R,0.0592X0.0434*%
%ADD26O,0.0946X0.0316*%
D11*
X1100Y850D02*
D03*
Y1850D02*
D03*
Y3850D02*
D03*
Y4850D02*
D03*
Y2850D02*
D03*
D12*
Y5850D02*
D03*
D23*
X3850Y3050D02*
D03*
Y4350D02*
D03*
X2700D02*
D03*
Y3050D02*
D03*
X8600D02*
D03*
Y4350D02*
D03*
Y1900D02*
D03*
Y600D02*
D03*
X3850D02*
D03*
Y1900D02*
D03*
D24*
X6450D02*
D03*
X5150D02*
D03*
D25*
X2700Y1674D02*
D03*
Y926D02*
D03*
X5550Y1098D02*
D03*
Y350D02*
D03*
D26*
X5255Y2800D02*
D03*
Y3300D02*
D03*
Y3800D02*
D03*
Y4300D02*
D03*
X7145Y2800D02*
D03*
Y3300D02*
D03*
Y3800D02*
D03*
Y4300D02*
D03*
M02*
